<svg width="175" height="35" viewBox="0 0 175 46" fill="none" xmlns="http://www.w3.org/2000/svg">
    <g style="mix-blend-mode:luminosity">
        <path
            d="M20.6145 0.655412L20.6721 6.17862C20.6766 6.54823 20.4049 6.8505 20.0668 6.85499L7.05963 7.0181C6.72153 7.02259 6.44987 7.32486 6.4543 7.69447L6.51188 13.1892C6.51631 13.5589 6.79387 13.8536 7.13197 13.8507L13.981 13.7654C14.3191 13.7609 14.5967 14.0572 14.6011 14.4268L14.6602 19.9799C14.6646 20.3495 14.393 20.6518 14.0549 20.6563L7.18364 20.7416C6.86622 20.7461 6.60637 21.0139 6.57979 21.3581C5.94346 29.8142 11.6203 37.9696 20.427 38.5667C20.7459 38.5876 20.9955 38.8764 20.9999 39.2251L21.0575 44.6794C21.0619 45.0535 20.7843 45.3573 20.4418 45.3558C18.3084 45.3453 16.2783 44.9144 14.3044 44.1752C5.98332 41.0656 0.372965 32.6454 0.241564 23.055C0.142645 15.8214 0.0850645 8.58931 0.00386195 1.35573C-0.0035201 0.7437 -0.0670049 0.225947 0.787836 0.219961C7.19693 0.172076 13.6046 0.0778035 20.0122 0.00148721C20.0136 0.00148721 20.0151 0.00148721 20.0181 0.00148721C20.3458 -0.00150559 20.6101 0.296277 20.6145 0.655412Z"
            fill="url(#paint0_linear_20_206)" />
        <path
            d="M37.8675 21.3431H41.5851C42.2407 21.3431 42.7604 20.7565 42.722 20.0607C42.0783 8.36636 32.9629 0.564142 24.2979 0C24.3185 1.869 24.3717 3.66917 24.3407 5.46784C24.3274 6.2325 24.5356 6.5213 25.2738 6.67693C31.8054 8.0596 36.0383 13.8058 36.5801 20.0817C36.6421 20.7954 37.1958 21.3431 37.8675 21.3431Z"
            fill="url(#paint1_linear_20_206)" />
        <path
            d="M20.9523 21.3438C23.133 21.3438 24.9002 19.5526 24.9002 17.3424C24.9002 15.1323 23.133 13.3411 20.9523 13.3411C18.7717 13.3411 17.0044 15.1323 17.0044 17.3424C17.0044 19.5526 18.7717 21.3438 20.9523 21.3438Z"
            fill="url(#paint2_linear_20_206)" />
        <path
            d="M37.6952 26.6792C37.0249 26.6792 36.4461 27.1461 36.2985 27.8015C35.8733 29.7019 35.0495 31.5664 33.7842 33.2828C31.6286 36.2083 28.7585 38.0788 25.2121 38.9123C24.8726 38.9916 24.3233 39.2983 24.3189 39.5108C24.2717 41.4561 24.3219 43.4059 24.344 45.3542C31.698 45.0445 40.9905 38.6683 42.7076 28.1098C42.8301 27.3601 42.2529 26.6792 41.494 26.6792H37.6952Z"
            fill="url(#paint3_linear_20_206)" />
        <path
            d="M65.2566 10.2315C63.3623 11.9523 62.4174 14.4543 62.4174 17.7374V22.484H81.1516V27.5867H62.4174V44.3793H56.5635V17.6775C56.5635 12.8921 58.0561 9.14358 61.0414 6.4336C64.0267 3.72512 68.1932 2.36938 73.5407 2.36938C75.8823 2.36938 78.0674 2.63574 80.0975 3.16996C82.126 3.70417 83.883 4.48529 85.3668 5.51332L83.4341 10.438C80.8194 8.57944 77.5802 7.64868 73.7149 7.64868C69.9693 7.65017 67.1493 8.5106 65.2566 10.2315Z"
            fill="rgba(255,221,177,0.747)" />
        <path
            d="M94.0315 42.2143C92.3927 40.5339 91.5732 38.1695 91.5732 35.1229V0.351074H97.1939V34.6485C97.1939 36.3499 97.594 37.6548 98.3943 38.5646C99.1945 39.4744 100.393 39.9293 101.995 39.9293C102.97 39.9293 103.888 39.7318 104.747 39.3352L105.04 44.0234C103.752 44.4978 102.406 44.7357 101 44.7357C97.9927 44.7357 95.6703 43.8963 94.0315 42.2143Z"
            fill="rgba(255,221,177,0.747)" />
        <path
            d="M132.73 35.9539L135.774 39.6336C134.407 41.2946 132.681 42.562 130.594 43.4314C128.506 44.3023 126.173 44.7363 123.597 44.7363C120.318 44.7363 117.411 44.0539 114.874 42.6892C112.336 41.3245 110.376 39.4166 108.991 36.9625C107.605 34.5099 106.912 31.7401 106.912 28.6545C106.912 25.6093 107.585 22.8604 108.932 20.4064C110.278 17.9538 112.131 16.0444 114.493 14.6796C116.854 13.3149 119.518 12.6326 122.485 12.6326C125.295 12.6326 127.851 13.276 130.155 14.5614C132.457 15.8468 134.292 17.6575 135.658 19.9904C137.023 22.3247 137.726 25.0153 137.766 28.0604L113.119 32.9267C113.9 35.1025 115.217 36.7829 117.071 37.9711C118.924 39.1577 121.159 39.7518 123.774 39.7518C127.48 39.7518 130.467 38.4873 132.73 35.9539ZM117.245 18.8067C115.703 19.7165 114.502 20.9929 113.645 22.6345C112.785 24.276 112.357 26.1854 112.357 28.3612V28.9553L132.203 25.1559C131.695 22.8619 130.564 21.0019 128.807 19.5788C127.05 18.1543 124.943 17.4435 122.484 17.4435C120.533 17.442 118.787 17.8969 117.245 18.8067Z"
            fill="rgba(255,221,177,0.747)" />
        <path
            d="M150.586 42.6593C148.128 41.2751 146.204 39.3657 144.819 36.9326C143.433 34.4994 142.74 31.7401 142.74 28.6545C142.74 25.5689 143.433 22.8096 144.819 20.3764C146.204 17.9433 148.126 16.0444 150.586 14.6796C153.044 13.3149 155.816 12.6326 158.9 12.6326C161.983 12.6326 164.743 13.3149 167.184 14.6796C169.623 16.0444 171.535 17.9433 172.921 20.3764C174.306 22.8096 175 25.5689 175 28.6545C175 31.7401 174.306 34.4994 172.921 36.9326C171.535 39.3657 169.623 41.2751 167.184 42.6593C164.745 44.045 161.983 44.7363 158.9 44.7363C155.817 44.7363 153.046 44.045 150.586 42.6593ZM164.256 38.3571C165.837 37.4279 167.076 36.123 167.974 34.4411C168.871 32.7606 169.32 30.8318 169.32 28.656C169.32 26.4802 168.871 24.5529 167.974 22.8709C167.076 21.1905 165.837 19.8946 164.256 18.9848C162.675 18.075 160.89 17.6201 158.9 17.6201C156.91 17.6201 155.123 18.075 153.543 18.9848C151.962 19.8946 150.713 21.1905 149.796 22.8709C148.879 24.5529 148.42 26.4817 148.42 28.656C148.42 30.8318 148.878 32.7606 149.796 34.4411C150.713 36.123 151.962 37.4279 153.543 38.3571C155.125 39.2864 156.91 39.7518 158.9 39.7518C160.89 39.7518 162.676 39.2879 164.256 38.3571Z"
            fill="rgba(255,221,177,0.747)" />
    </g>
    <defs>
        <linearGradient id="paint0_linear_20_206" x1="7.64003" y1="9.89826" x2="18.6677" y2="28.8614"
            gradientUnits="userSpaceOnUse">
            <stop stop-color="rgba(252,196,144,0.822)" />
            <stop offset="0.26" stop-color="rgba(250,199,149,0.664)" />
            <stop offset="0.65" stop-color="rgba(247,205,154,0.63)" />
            <stop offset="1" stop-color="rgba(253,222,175,0.692)" />
        </linearGradient>
        <linearGradient id="paint1_linear_20_206" x1="35.5367" y1="15.1156" x2="44.0784" y2="32.2173"
            gradientUnits="userSpaceOnUse">
            <stop stop-color="rgba(250,175,106,0.726)" />
            <stop offset="0.26" stop-color="rgba(247,188,129,0.664)" />
            <stop offset="0.65" stop-color="rgba(250,191,118,0.63)" />
            <stop offset="1" stop-color="rgba(255,222,172,0.692)" />
        </linearGradient>
        <linearGradient id="paint2_linear_20_206" x1="18.9834" y1="16.864" x2="22.4171" y2="17.6768"
            gradientUnits="userSpaceOnUse">
            <stop stop-color="rgba(250,175,106,0.726)" />
            <stop offset="0.26" stop-color="rgba(247,188,129,0.664)" />
            <stop offset="0.65" stop-color="rgba(250,191,118,0.63)" />
            <stop offset="1" stop-color="rgba(255,222,172,0.692)" />
        </linearGradient>
        <linearGradient id="paint3_linear_20_206" x1="27.45" y1="23.2134" x2="35.3711" y2="40.051"
            gradientUnits="userSpaceOnUse">
            <stop stop-color="rgba(250,175,106,0.726)" />
            <stop offset="0.26" stop-color="rgba(247,188,129,0.664)" />
            <stop offset="0.65" stop-color="rgba(250,191,118,0.63)" />
            <stop offset="1" stop-color="rgba(255,222,172,0.692)" />
        </linearGradient>
    </defs>
</svg>